<svg xmlns="http://www.w3.org/2000/svg" aria-hidden="true" data-prefix="fas" data-icon="chart-pie" class="svg-inline--fa fa-chart-pie fa-w-17" role="img" viewBox="0 0 512 512" width="100%" height="100%"  xmlns:xlink="http://www.w3.org/1999/xlink"  preserveAspectRatio="xMidYMid meet"><rect id="svgEditorBackground" x="0" y="0" width="512" height="512" style="fill: none; stroke: none;"/><path d="M580.4132610962222,360.8629789928303h-237.29000000000002l158.0300000000001,158.02999999999992c6.039999999999964,6.039999999999736,15.979999999999961,6.529999999999745,22.18999999999977,0.6800000000000637c38.700000000000045,-36.460000000000036,65.32000000000016,-85.61000000000001,73.13000000000011,-140.86c1.3400000000001455,-9.45999999999998,-6.509999999999991,-17.850000000000023,-16.059999999999945,-17.850000000000023ZM564.5832610962223,296.06297899283027c-8.240000000000009,-119.45999999999998,-103.70000000000016,-214.92,-223.16000000000008,-223.16c-9.120000000000005,-0.6299999999999955,-16.80000000000001,7.060000000000002,-16.80000000000001,16.200000000000017v223.76h223.77000000000004c9.139999999999873,0,16.820000000000164,-7.680000000000064,16.190000000000055,-16.800000000000068ZM276.62326109622217,360.8629789928303v-237.29c0,-9.550000000000011,-8.389999999999986,-17.400000000000006,-17.839999999999975,-16.060000000000002c-119.17000000000002,16.840000000000003,-210.26000000000002,120.94999999999996,-206.02000000000004,245.72c4.360000000000014,128.13999999999993,114.69,233.21999999999986,242.89,231.60999999999996c50.400000000000034,-0.6300000000001091,96.97000000000003,-16.87000000000012,135.26,-44.02999999999997c7.899999999999864,-5.600000000000364,8.420000000000073,-17.230000000000018,1.5699999999999363,-24.079999999999927l-155.8599999999999,-155.87000000000006Z" transform="matrix(0.404787 0 0 0.404787 148.255 120.403)" style="fill:#5CADD3;"/><circle id="e1_circle" cx="254" cy="254" style="stroke-width: 2px; stroke:rgb(110,110,110);fill-opacity:0;" r="230"/><circle id="e2_circle" cx="480" cy="255" style="fill: #5CADD3;" r="50" transform="matrix(0.756997 0.0851792 -0.0827455 0.735368 130.393 9.13618)"/></svg>