<svg xmlns="http://www.w3.org/2000/svg" aria-hidden="true" data-prefix="fas" data-icon="chart-line" class="svg-inline--fa fa-chart-line fa-w-16" role="img" viewBox="0 0 512 512" width="100%" height="100%"  xmlns:xlink="http://www.w3.org/1999/xlink"  preserveAspectRatio="xMidYMid meet"><rect id="svgEditorBackground" x="0" y="0" width="512" height="512" style="fill: none; stroke: none;"/><path d="M534.6368465989598,424.56868727816493h-432.00000000000017v-304c0,-8.840000000000003,-7.159999999999982,-16,-15.999999999999986,-16h-32c-8.840000000000003,0,-16.000000000000014,7.159999999999997,-16.000000000000014,16v336c0,17.670000000000016,14.330000000000013,32,32.000000000000014,32h464.00000000000017c8.839999999999918,0,16,-7.160000000000025,16,-16v-32c0,-8.839999999999975,-7.160000000000082,-16,-16,-16ZM502.6368465989595,136.56868727816476h-118.06c-21.379999999999995,0,-32.089999999999975,25.849999999999966,-16.96999999999997,40.96999999999997l32.39999999999998,32.400000000000034l-73.37,73.38000000000017l-73.36999999999992,-73.37000000000018c-12.499999999999972,-12.5,-32.75999999999996,-12.5,-45.24999999999997,0l-68.69,68.69000000000011c-6.25,6.250000000000114,-6.25,16.380000000000052,0,22.630000000000052l22.620000000000005,22.62000000000006c6.250000000000028,6.249999999999943,16.379999999999995,6.249999999999943,22.629999999999995,0l46.06,-46.07000000000011l73.36999999999989,73.37000000000006c12.5,12.5,32.75999999999999,12.5,45.25,0l96,-96.0000000000002l32.39999999999998,32.400000000000176c15.120000000000005,15.120000000000005,40.970000000000084,4.410000000000025,40.970000000000084,-16.970000000000084v-118.05000000000007c0.009999999999990905,-8.840000000000003,-7.150000000000034,-16,-15.990000000000066,-16Z" transform="matrix(0.509558 0 0 0.509558 96.8016 102.629)" style="fill:rgb(59, 189, 229);"/><circle id="e1_circle" cx="254" cy="254" style="stroke-width: 2px; stroke:rgb(210,210,210);fill-opacity:0;" r="230"/><circle id="e2_circle" cx="480" cy="255" style="fill: rgb(59, 189, 229);" r="50" transform="matrix(0.756997 0.0851792 -0.0827455 0.735368 130.393 9.13618)"/></svg>