<svg xmlns="http://www.w3.org/2000/svg" aria-hidden="true" data-prefix="fas" data-icon="cubes" class="svg-inline--fa fa-cubes fa-w-16" role="img" viewBox="0 0 512 512" width="100%" height="100%"  xmlns:xlink="http://www.w3.org/1999/xlink"  preserveAspectRatio="xMidYMid meet"><rect id="svgEditorBackground" x="0" y="0" width="512" height="512" style="fill: none; stroke: none;"/><path d="M485.6126439615333,238.25057584613324l-96.60000000000002,-36.19999999999999v-108.5c0,-15,-9.300000000000011,-28.400000000000006,-23.399999999999977,-33.699999999999996l-100,-37.50000000000001c-8.100000000000023,-3.1000000000000014,-17.100000000000023,-3.1000000000000014,-25.30000000000001,0l-100,37.50000000000001c-14.099999999999994,5.29999999999999,-23.400000000000006,18.699999999999996,-23.400000000000006,33.699999999999996v108.5l-96.6,36.19999999999999c-14.00000000000001,5.300000000000011,-23.30000000000001,18.699999999999932,-23.30000000000001,33.69999999999993v110.10000000000002c0,13.600000000000023,7.699999999999999,26.100000000000023,19.9,32.200000000000045l100,50c10.099999999999994,5.100000000000023,22.099999999999994,5.100000000000023,32.20000000000002,0l103.89999999999998,-52l103.89999999999998,52c10.100000000000023,5.100000000000023,22.100000000000023,5.100000000000023,32.19999999999999,0l100,-50c12.199999999999989,-6.100000000000023,19.899999999999977,-18.600000000000023,19.899999999999977,-32.200000000000045v-110.10000000000002c0,-15,-9.300000000000011,-28.39999999999995,-23.399999999999977,-33.69999999999993ZM355.0126439615333,202.85057584613327l-85,31.900000000000006v-68.20000000000002l85,-37v73.30000000000001ZM151.01264396153329,92.15057584613325l102,-38.2l102,38.2v0.5999999999999943l-102,41.400000000000006l-102,-41.400000000000006v-0.5999999999999943ZM235.01264396153329,383.25057584613324l-85,42.5v-79.10000000000002l85,-38.799999999999955v75.39999999999998ZM235.01264396153329,271.25057584613324l-102,41.39999999999998l-102,-41.39999999999998v-0.6000000000000227l102,-38.19999999999993l102,38.19999999999993v0.6000000000000227ZM475.0126439615333,383.25057584613324l-85,42.5v-79.10000000000002l85,-38.799999999999955v75.39999999999998ZM475.0126439615333,271.25057584613324l-102,41.39999999999998l-102,-41.39999999999998v-0.6000000000000227l102,-38.19999999999993l102,38.19999999999993v0.6000000000000227Z" transform="matrix(0.548445 0 0 0.548445 112.247 100.858)" style="fill:#5CADD3;"/><circle id="e1_circle" cx="254" cy="254" style="stroke-width: 2px; stroke:rgb(110,110,110);fill-opacity:0;" r="230"/><circle id="e2_circle" cx="480" cy="255" style="fill: #5CADD3;" r="50" transform="matrix(0.756997 0.0851792 -0.0827455 0.735368 130.393 9.13618)"/></svg>