<svg xmlns="http://www.w3.org/2000/svg" aria-hidden="true" data-prefix="far" data-icon="eye" class="svg-inline--fa fa-eye fa-w-18" role="img" viewBox="0 -0.128 741 718.256" width="100%" height="100%"  xmlns:xlink="http://www.w3.org/1999/xlink" preserveAspectRatio="xMidYMid meet" ><rect id="svgEditorBackground" x="0" y="0" width="576" height="512" style="fill:none;stroke:#4DA1B1;"/><path d="M554.2711715331502,229.11719525552505c-56.3839999999999,-95.68199999999999,-161.54399999999976,-159.631,-281.3539999999998,-159.631c-119.86000000000004,0,-224.99600000000004,63.994,-281.35400000000004,159.631a47.999,47.999,0,0,0,0,48.739000000000004c56.38499999999999,95.68099999999998,161.544,159.63,281.35400000000004,159.63c119.86000000000001,0,224.99599999999975,-63.99400000000003,281.3539999999998,-159.63099999999997a47.997,47.997,0,0,0,0,-48.738ZM272.9171715331504,389.48619525552505c-102.55599999999993,0,-192.09099999999995,-54.70100000000002,-239.99999999999994,-136c44.157,-74.93299999999999,123.67700000000002,-127.26999999999998,216.16199999999998,-135.007c9.79600000000005,10.085000000000008,15.837999999999965,23.837000000000018,15.837999999999965,39.007000000000005c0,30.927999999999997,-25.07200000000003,56,-55.99999999999994,56s-56,-25.072000000000003,-56,-56l0.0010000000000047748,-0.04200000000000159c-10.206999999999994,19.085000000000008,-16.001000000000005,40.885999999999996,-16.001000000000005,64.042c0,75.11099999999999,60.88900000000001,136,135.99999999999994,136s136.0000000000001,-60.88900000000001,136.0000000000001,-136c0,-31.031000000000006,-10.399999999999977,-59.62899999999999,-27.894999999999982,-82.51499999999999c55.59899999999993,23.15299999999999,101.904,63.62099999999998,131.89499999999964,114.51499999999999c-47.90799999999979,81.29899999999998,-137.44399999999962,136,-239.99999999999977,136Z" style="fill:#4DA1B1;z-index:10;" transform="matrix(0.611028 0 0 0.611028 131.413 101.051)"/><circle id="e1_circle" cx="254" cy="254" style="stroke-width: 2px; stroke:rgb(110,110,110);fill-opacity:0;" r="230"/><circle id="e2_circle" cx="480" cy="255" style="fill: #5CADD3;" r="50" transform="matrix(0.756997 0.0851792 -0.0827455 0.735368 130.393 9.13618)"/></svg>